<svg xmlns="http://www.w3.org/2000/svg" viewBox="0 0 96 96" role="img" aria-label="CopyLine logo mark">
  <rect width="96" height="96" rx="22" fill="#08111f"/>
  <path d="M25 26h38c8 0 14 6 14 14v9H65v-8c0-2-2-4-4-4H34c-2 0-4 2-4 4v14c0 2 2 4 4 4h21v11H25c-7 0-13-6-13-13V39c0-7 6-13 13-13Z" fill="#ffffff"/>
  <path d="M42 45h37c3 0 5 2 5 5v24c0 3-2 5-5 5H42c-3 0-5-2-5-5V50c0-3 2-5 5-5Zm7 12v10h23V57H49Z" fill="#22d3ee"/>
  <path d="M22 18h35" stroke="#22d3ee" stroke-width="6" stroke-linecap="round"/>
</svg>
